<svg xmlns="http://www.w3.org/2000/svg" width="100" height="100" viewBox="0 0 100 100">
  <rect width="100" height="100" rx="16" fill="#1a1f2e"/>
  <g fill="#2a3040">
    <circle cx="20" cy="15" r="3.5"/><circle cx="70" cy="15" r="3.5"/><circle cx="80" cy="15" r="3.5"/>
    <circle cx="30" cy="25" r="3.5"/><circle cx="40" cy="25" r="3.5"/><circle cx="50" cy="25" r="3.5"/><circle cx="60" cy="25" r="3.5"/><circle cx="70" cy="25" r="3.5"/><circle cx="80" cy="25" r="3.5"/>
    <circle cx="30" cy="35" r="3.5"/><circle cx="40" cy="35" r="3.5"/><circle cx="50" cy="35" r="3.5"/><circle cx="60" cy="35" r="3.5"/><circle cx="70" cy="35" r="3.5"/><circle cx="80" cy="35" r="3.5"/>
    <circle cx="30" cy="45" r="3.5"/><circle cx="40" cy="45" r="3.5"/><circle cx="80" cy="45" r="3.5"/>
    <circle cx="30" cy="55" r="3.5"/><circle cx="40" cy="55" r="3.5"/><circle cx="50" cy="55" r="3.5"/><circle cx="60" cy="55" r="3.5"/><circle cx="80" cy="55" r="3.5"/>
    <circle cx="30" cy="65" r="3.5"/><circle cx="40" cy="65" r="3.5"/><circle cx="50" cy="65" r="3.5"/><circle cx="60" cy="65" r="3.5"/><circle cx="80" cy="65" r="3.5"/>
    <circle cx="30" cy="75" r="3.5"/><circle cx="40" cy="75" r="3.5"/><circle cx="50" cy="75" r="3.5"/><circle cx="60" cy="75" r="3.5"/><circle cx="80" cy="75" r="3.5"/>
    <circle cx="20" cy="85" r="3.5"/><circle cx="70" cy="85" r="3.5"/><circle cx="80" cy="85" r="3.5"/>
  </g>
  <g fill="#1d9bf0">
    <circle cx="30" cy="15" r="3.5"/><circle cx="40" cy="15" r="3.5"/><circle cx="50" cy="15" r="3.5"/><circle cx="60" cy="15" r="3.5"/>
    <circle cx="20" cy="25" r="3.5"/>
    <circle cx="20" cy="35" r="3.5"/>
    <circle cx="20" cy="45" r="3.5"/><circle cx="50" cy="45" r="3.5"/><circle cx="60" cy="45" r="3.5"/><circle cx="70" cy="45" r="3.5"/>
    <circle cx="20" cy="55" r="3.5"/><circle cx="70" cy="55" r="3.5"/>
    <circle cx="20" cy="65" r="3.5"/><circle cx="70" cy="65" r="3.5"/>
    <circle cx="20" cy="75" r="3.5"/><circle cx="70" cy="75" r="3.5"/>
    <circle cx="30" cy="85" r="3.5"/><circle cx="40" cy="85" r="3.5"/><circle cx="50" cy="85" r="3.5"/><circle cx="60" cy="85" r="3.5"/>
  </g>
</svg>
